<svg width="472" height="472" xmlns="http://www.w3.org/2000/svg">
 <metadata id="metadata18081">image/svg+xmlPublic Domainclker.comMohamed Ibrahimmap symbolsmap symbolsimage/svg+xmlMap SymbolsMohamed IbrahimPublic Domain Licenseclker.commap symbols</metadata>

 <g>
  <title>background</title>
  <rect fill="none" id="canvas_background" height="474" width="474" y="-1" x="-1"/>
 </g>
 <g>
  <title>Layer 1</title>
  <path fill="#ffffff" fill-rule="nonzero" id="path6760" d="m56.12689,9.22526c-25.86618,0 -46.90338,21.03719 -46.90338,46.90338l0,359.64037c0,25.81837 21.0372,46.80775 46.90338,46.80775l359.64037,0c25.81837,0 46.80775,-20.98938 46.80775,-46.80775l0,-359.64037c0,-25.86619 -20.98938,-46.90338 -46.80775,-46.90338l-359.64037,0z"/>
  <path fill="#231f20" fill-rule="nonzero" id="path6762" d="m415.76726,472.13912c31.1733,0 56.41793,-25.19682 56.41793,-56.37011l0,-359.64037c0,-31.1733 -25.24464,-56.46574 -56.41793,-56.46574l-359.64037,0c-31.1733,0 -56.46574,25.29244 -56.46574,56.46574l0,359.64037c0,31.17329 25.29244,56.37011 56.46574,56.37011l359.64037,0z"/>
  <path fill="#ffffff" fill-rule="nonzero" id="path6764" d="m359.92308,120.48332c-3.72932,-18.55098 -15.58665,-25.96181 -33.42045,-33.37264c-17.83381,-7.45864 -59.57351,-16.30382 -90.69899,-16.30382c-31.17329,0 -72.913,8.84518 -90.7468,16.30382c-17.8338,7.41083 -29.69113,14.82166 -33.42045,33.37264l-13.3873,102.891l0,141.76199l23.0931,0l0,22.23249c0,27.06148 39.68379,27.06148 39.68379,0l0,-22.23249l149.60313,0l0,22.23249c0,27.06148 39.58817,27.06148 39.58817,0l0,-22.23249l23.04529,0l0,-141.76199l-13.33949,-102.891zm-186.3704,-26.96586l124.40631,0c12.23982,0 12.23982,23.18873 0,23.18873l-124.40631,0c-12.19201,0 -12.19201,-23.18873 0,-23.18873m-32.41641,229.06634c-11.52264,0 -20.89376,-9.3233 -20.89376,-20.94157c0,-11.52264 9.37112,-20.89376 20.89376,-20.89376c11.57046,0 20.94157,9.37112 20.94157,20.89376c0,11.61827 -9.37111,20.94157 -20.94157,20.94157m189.28692,0c-11.57046,0 -20.98938,-9.3233 -20.98938,-20.94157c0,-11.52264 9.41892,-20.89376 20.98938,-20.89376c11.47483,0 20.84595,9.37112 20.84595,20.89376c0,11.61827 -9.37112,20.94157 -20.84595,20.94157m8.22363,-88.35621l-205.44731,0c-5.97648,0 -10.9489,-4.97243 -10.9489,-10.9489c0,-1.00405 0.19124,-1.96029 0.38249,-2.86871l10.94891,-81.13662c0.90842,-5.06805 5.40273,-8.98862 10.70984,-8.98862l183.21482,0c5.30711,0 9.80142,3.92057 10.75765,8.98862l10.9011,81.13662c0.19125,0.90843 0.3825,1.86466 0.3825,2.86871c0,5.97647 -4.92462,10.9489 -10.90109,10.9489"/>
 </g>
</svg>